# xmcd
#
# Track frame offsets:
#	150
#	16422
#	31095
#	53048
#	71919
#	88390
#	104542
#	117534
#	140006
#	156319
#	176952
#	199385
#	222298
#	241810
#	266802
#	288034
#
# Disc length: 4054 seconds
#
# Revision: 1
# Processed by: cddbd v1.5.1PL2 Copyright (c) Steve Scherf et al.
# Submitted via: audiograbber 1.83.01
#
DISCID=fb0fd410
DTITLE=Robbie Williams - SGS15
DYEAR=1900
DGENRE=Karaoke
TTITLE0=Mack the Knife
TTITLE1=Something Stupid
TTITLE2=It Was a Very Good Year
TTITLE3=Well Did You Evah
TTITLE4=Mister Bojangles
TTITLE5=Me and My Shadow
TTITLE6=Have You Met Miss Jones
TTITLE7=Let Love Be Your Energy
TTITLE8=Better Man
TTITLE9=Rock DJ
TTITLE10=Kids
TTITLE11=Knutsford City Limits
TTITLE12=The Road To Mandalay
TTITLE13=No Regrets
TTITLE14=Angels (Acoustic Version)
TTITLE15=I Will Talk and Hollywood Will Listen
EXTD=
EXTT0=
EXTT1=
EXTT2=
EXTT3=
EXTT4=
EXTT5=
EXTT6=
EXTT7=
EXTT8=
EXTT9=
EXTT10=
EXTT11=
EXTT12=
EXTT13=
EXTT14=
EXTT15=
PLAYORDER=
